<svg aria-hidden="true" style="position: absolute; width: 0; height: 0; overflow: hidden;" version="1.1" xmlns="http://www.w3.org/2000/svg" xmlns:xlink="http://www.w3.org/1999/xlink">
<defs>
<symbol id="icon-arrow" viewBox="0 0 28 32">
<path d="M18.766 4.646l-11.075 1.562c-1.102 0.16-2.103-0.601-2.263-1.702-0.14-1.122 0.601-2.103 1.702-2.263l15.882-2.223c1.102-0.16 2.103 0.581 2.263 1.702l2.223 15.862c0.16 1.102-0.601 2.103-1.702 2.263-1.122 0.16-2.103-0.601-2.263-1.702l-1.562-11.075-18.786 24.915-3.184-2.403 18.766-24.935z"></path>
</symbol>
<symbol id="icon-check" viewBox="0 0 43 32">
<path d="M5.333 10.667l-5.333 5.333 16 16 26.667-26.667-5.333-5.333-21.333 21.333-10.667-10.667z"></path>
</symbol>
<symbol id="icon-clock" viewBox="0 0 32 32">
<path stroke-width="2.4" stroke-miterlimit="4" stroke-linecap="butt" stroke-linejoin="round" d="M16 29.328c-7.376 0-13.344-5.968-13.344-13.344 0-7.36 5.968-13.328 13.344-13.328 7.36 0 13.328 5.968 13.328 13.328 0 7.376-5.968 13.344-13.328 13.344z"></path>
<path stroke-width="2.4" stroke-miterlimit="4" stroke-linecap="round" stroke-linejoin="round" d="M16 8v8l5.328 2.656"></path>
</symbol>
<symbol id="icon-close" viewBox="0 0 32 32">
<path stroke-width="2.5" stroke-miterlimit="4" stroke-linecap="round" stroke-linejoin="round" d="M24 8l-16 16"></path>
<path stroke-width="2.5" stroke-miterlimit="4" stroke-linecap="round" stroke-linejoin="round" d="M8 8l16 16"></path>
</symbol>
<symbol id="icon-down" viewBox="0 0 55 32">
<path stroke-width="9.1375" stroke-miterlimit="4" stroke-linecap="round" stroke-linejoin="round" d="M4.569 4.569l22.844 22.844 22.844-22.844"></path>
</symbol>
<symbol id="icon-ellipse" viewBox="0 0 32 32">
<path d="M32 16c0 8.837-7.163 16-16 16s-16-7.163-16-16c0-8.837 7.163-16 16-16s16 7.163 16 16z"></path>
</symbol>
<symbol id="icon-eye" viewBox="0 0 32 32">
<path stroke-width="3.2" stroke-miterlimit="4" stroke-linecap="butt" stroke-linejoin="round" d="M15.984 5.328c9.344 0 14.672 10.656 14.672 10.656s-5.328 10.672-14.672 10.672c-9.328 0-14.656-10.672-14.656-10.672s5.328-10.656 14.656-10.656z"></path>
<path stroke-width="3.2" stroke-miterlimit="4" stroke-linecap="butt" stroke-linejoin="round" d="M16 20c-2.224 0-4-1.792-4-4 0-2.224 1.776-4 4-4 2.208 0 4 1.776 4 4 0 2.208-1.792 4-4 4z"></path>
</symbol>
<symbol id="icon-eye-off" viewBox="0 0 32 32">
<path stroke-width="3.2" stroke-miterlimit="4" stroke-linecap="butt" stroke-linejoin="round" d="M23.92 23.92c-2.288 1.728-5.056 2.688-7.936 2.736-9.328 0-14.656-10.656-14.656-10.656 1.648-3.104 3.952-5.792 6.736-7.92M13.184 5.648c0.928-0.224 1.872-0.32 2.8-0.32 9.344 0 14.672 10.672 14.672 10.672-0.8 1.504-1.776 2.928-2.88 4.24M18.816 18.816c-0.368 0.4-0.8 0.704-1.296 0.928s-1.024 0.336-1.552 0.352c-0.544 0-1.072-0.096-1.568-0.288-0.512-0.208-0.96-0.512-1.344-0.88-0.368-0.384-0.672-0.832-0.88-1.344-0.192-0.496-0.288-1.024-0.288-1.568 0.016-0.528 0.128-1.056 0.352-1.552s0.528-0.928 0.928-1.296"></path>
<path stroke-width="3.2" stroke-miterlimit="4" stroke-linecap="round" stroke-linejoin="round" d="M1.328 1.328l29.328 29.328"></path>
</symbol>
<symbol id="icon-heart" viewBox="0 0 36 32">
<path stroke-width="2.9424" stroke-miterlimit="4" stroke-linecap="butt" stroke-linejoin="round" d="M29.365 2.133c-1.059-0.441-2.207-0.662-3.354-0.662s-2.295 0.221-3.354 0.662c-1.059 0.441-2.030 1.089-2.839 1.898l-1.692 1.692-1.692-1.692c-1.648-1.648-3.869-2.56-6.208-2.56-2.324 0-4.546 0.912-6.194 2.56s-2.56 3.869-2.56 6.208c0 2.324 0.912 4.546 2.56 6.194l14.094 14.094 12.402-12.402 1.677-1.692c0.824-0.809 1.471-1.78 1.913-2.839 0.441-1.074 0.662-2.207 0.662-3.354 0-1.162-0.221-2.295-0.662-3.369-0.441-1.059-1.089-2.030-1.913-2.839-0.809-0.809-1.78-1.456-2.839-1.898z"></path>
</symbol>
<symbol id="icon-star" viewBox="0 0 32 32">
<path d="M15.1 1.66l-3.78 7.16c-0.14 0.28-0.4 0.46-0.7 0.52l-7.98 1.38c-0.8 0.14-1.1 1.1-0.54 1.68l5.64 5.8c0.22 0.24 0.32 0.54 0.26 0.84l-1.14 8.020c-0.12 0.8 0.7 1.4 1.42 1.040l7.26-3.58c0.28-0.12 0.62-0.12 0.9 0l7.26 3.58c0.72 0.36 1.54-0.24 1.42-1.040l-1.14-8.020c-0.060-0.3 0.040-0.6 0.26-0.84l5.64-5.8c0.56-0.58 0.26-1.54-0.54-1.68l-7.98-1.38c-0.3-0.060-0.56-0.24-0.7-0.52l-3.78-7.16c-0.38-0.7-1.4-0.7-1.78 0z"></path>
<path d="M11.32 8.82l3.78-7.16c0.38-0.7 1.4-0.7 1.78 0l3.78 7.16c0.14 0.28 0.4 0.46 0.7 0.52l7.98 1.38c0.8 0.14 1.1 1.1 0.54 1.68l-5.64 5.8c-0.22 0.24-0.32 0.54-0.26 0.84l1.14 8.020c0.12 0.8-0.7 1.4-1.42 1.040l-7.26-3.58c-0.28-0.12-0.62-0.12-0.9 0l-7.26 3.58c-0.72 0.36-1.54-0.24-1.42-1.040l1.14-8.020c0.060-0.3-0.040-0.6-0.26-0.84l-5.64-5.8c-0.56-0.58-0.26-1.54 0.54-1.68l7.98-1.38c0.3-0.060 0.56-0.24 0.7-0.52zM13.46 9.94c-0.5 0.94-1.4 1.58-2.44 1.76l-5.36 0.94 3.8 3.9c0.74 0.76 1.080 1.8 0.92 2.84l-0.78 5.4 4.88-2.4c0.96-0.48 2.060-0.48 3.020 0l4.88 2.4-0.78-5.4c-0.16-1.040 0.18-2.080 0.92-2.84l3.8-3.9-5.36-0.94c-1.040-0.18-1.94-0.82-2.44-1.76l-2.52-4.8-2.54 4.8z"></path>
</symbol>
<symbol id="icon-question" viewBox="0 0 19 32">
<path d="M4.303 9.143c0-2.538 1.915-4.582 4.303-4.582h2.151c2.366 0 4.303 2.044 4.303 4.582v0.237c0 1.57-0.753 3.012-1.979 3.851l-2.84 1.936c-0.839 0.581-1.527 1.355-2.001 2.28s-0.71 1.958-0.71 3.012v0.108c0 1.269 0.947 2.28 2.151 2.28 1.183 0 2.151-1.011 2.151-2.28v-0.108c0-0.581 0.28-1.119 0.731-1.441l2.84-1.936c2.452-1.678 3.958-4.582 3.958-7.701v-0.237c0-5.055-3.872-9.143-8.605-9.143h-2.151c-4.754 0-8.605 4.087-8.605 9.143 0 1.248 0.947 2.28 2.151 2.28 1.183 0 2.151-1.033 2.151-2.28zM9.681 31.989c0.71 0 1.377-0.301 1.893-0.839 0.495-0.538 0.796-1.269 0.796-2.022s-0.301-1.484-0.796-2.022c-0.516-0.538-1.183-0.839-1.893-0.839-0.731 0-1.398 0.301-1.915 0.839-0.495 0.538-0.774 1.269-0.774 2.022s0.28 1.484 0.774 2.022c0.516 0.538 1.183 0.839 1.915 0.839z"></path>
</symbol>
<symbol id="icon-up" viewBox="0 0 55 32">
<path stroke-width="9.1375" stroke-miterlimit="4" stroke-linecap="round" stroke-linejoin="round" d="M4.569 27.413l22.844-22.844 22.844 22.844"></path>
</symbol>
<symbol id="icon-user" viewBox="0 0 32 32">
<path d="M16 0c2.12 0 4.14 0.84 5.64 2.34s2.36 3.52 2.36 5.66c0 2.12-0.86 4.14-2.36 5.64s-3.52 2.36-5.64 2.36c-2.14 0-4.16-0.86-5.66-2.36s-2.34-3.52-2.34-5.64c0-2.14 0.84-4.16 2.34-5.66s3.52-2.34 5.66-2.34zM16 20c8.84 0 16 3.58 16 8v4h-32v-4c0-4.42 7.14-8 16-8z"></path>
</symbol>
<symbol id="icon-users" viewBox="0 0 35 32">
<path d="M24.989 25.787l-0.926 3.447-24.063-6.463 0.905-3.447c0 0 1.853-6.872 13.895-3.641s10.19 10.103 10.19 10.103zM23.352 7.842c0.323-1.206 0.28-2.456-0.129-3.619-0.388-1.163-1.12-2.197-2.111-2.951-0.969-0.754-2.154-1.185-3.382-1.271s-2.456 0.215-3.511 0.819c-1.077 0.625-1.939 1.551-2.477 2.65s-0.754 2.348-0.582 3.576c0.151 1.206 0.668 2.348 1.486 3.274 0.819 0.948 1.874 1.594 3.059 1.917 1.616 0.431 3.318 0.215 4.739-0.625 1.422-0.819 2.477-2.176 2.908-3.77zM26.734 18.871c0.84 1.099 1.422 2.37 1.702 3.727 0.302 1.357 0.302 2.757 0 4.115l-0.926 3.425 6.872 1.853 0.926-3.447c0 0 1.68-6.247-8.574-9.673zM29.255 2.973c-1.185-0.323-2.434-0.28-3.598 0.129 0.668 1.723 0.754 3.619 0.28 5.429-0.495 1.788-1.508 3.382-2.951 4.567 0.797 0.926 1.853 1.594 3.038 1.917 1.616 0.409 3.318 0.194 4.739-0.625 1.422-0.84 2.477-2.197 2.908-3.791s0.194-3.296-0.625-4.739c-0.84-1.422-2.197-2.456-3.791-2.887z"></path>
</symbol>
</defs>
</svg>
